name C:\Users\u0101727\Documents\MyRepositories\upper-imu-dc\OpenSim\subject0\MA\MA_Splines\angle_in_n6_dof6_0.mot
datacolumns 7
datarows 74
range 75.01000000 75.74000000
endheader 
time	clav_prot	clav_elev	scapula_abduction	scapula_elevation	scapula_upward_rot	scapula_winging	
         75.01000000	        -44.34577705	          2.15399008	          2.85286645	          4.10553212	         85.49388449	        -12.40251587	
         75.02000000	        -38.85780873	          2.15399008	          2.85286645	          4.10553212	         85.49388449	        -12.40251587	
         75.03000000	        -33.36984042	          2.15399008	          2.85286645	          4.10553212	         85.49388449	        -12.40251587	
         75.04000000	        -27.88187210	          2.15399008	          2.85286645	          4.10553212	         85.49388449	        -12.40251587	
         75.05000000	        -22.39390379	          2.15399008	          2.85286645	          4.10553212	         85.49388449	        -12.40251587	
         75.06000000	        -16.90593547	          2.15399008	          2.85286645	          4.10553212	         85.49388449	        -12.40251587	
         75.07000000	        -44.34577705	          7.05722688	          2.85286645	          4.10553212	         85.49388449	        -12.40251587	
         75.08000000	        -38.85780873	          7.05722688	          2.85286645	          4.10553212	         85.49388449	        -12.40251587	
         75.09000000	        -33.36984042	          7.05722688	          2.85286645	          4.10553212	         85.49388449	        -12.40251587	
         75.10000000	        -27.88187210	          7.05722688	          2.85286645	          4.10553212	         85.49388449	        -12.40251587	
         75.11000000	        -22.39390379	          7.05722688	          2.85286645	          4.10553212	         85.49388449	        -12.40251587	
         75.12000000	        -16.90593547	          7.05722688	          2.85286645	          4.10553212	         85.49388449	        -12.40251587	
         75.13000000	        -44.34577705	         11.96046367	          2.85286645	          4.10553212	         85.49388449	        -12.40251587	
         75.14000000	        -38.85780873	         11.96046367	          2.85286645	          4.10553212	         85.49388449	        -12.40251587	
         75.15000000	        -33.36984042	         11.96046367	          2.85286645	          4.10553212	         85.49388449	        -12.40251587	
         75.16000000	        -27.88187210	         11.96046367	          2.85286645	          4.10553212	         85.49388449	        -12.40251587	
         75.17000000	        -22.39390379	         11.96046367	          2.85286645	          4.10553212	         85.49388449	        -12.40251587	
         75.18000000	        -16.90593547	         11.96046367	          2.85286645	          4.10553212	         85.49388449	        -12.40251587	
         75.19000000	        -44.34577705	         16.86370047	          2.85286645	          4.10553212	         85.49388449	        -12.40251587	
         75.20000000	        -38.85780873	         16.86370047	          2.85286645	          4.10553212	         85.49388449	        -12.40251587	
         75.21000000	        -33.36984042	         16.86370047	          2.85286645	          4.10553212	         85.49388449	        -12.40251587	
         75.22000000	        -27.88187210	         16.86370047	          2.85286645	          4.10553212	         85.49388449	        -12.40251587	
         75.23000000	        -22.39390379	         16.86370047	          2.85286645	          4.10553212	         85.49388449	        -12.40251587	
         75.24000000	        -16.90593547	         16.86370047	          2.85286645	          4.10553212	         85.49388449	        -12.40251587	
         75.25000000	        -44.34577705	         -7.65248351	         11.28790885	          4.10553212	         85.49388449	        -12.40251587	
         75.26000000	        -38.85780873	         -7.65248351	         11.28790885	          4.10553212	         85.49388449	        -12.40251587	
         75.27000000	        -33.36984042	         -7.65248351	         11.28790885	          4.10553212	         85.49388449	        -12.40251587	
         75.28000000	        -27.88187210	         -7.65248351	         11.28790885	          4.10553212	         85.49388449	        -12.40251587	
         75.29000000	        -22.39390379	         -7.65248351	         11.28790885	          4.10553212	         85.49388449	        -12.40251587	
         75.30000000	        -16.90593547	         -7.65248351	         11.28790885	          4.10553212	         85.49388449	        -12.40251587	
         75.31000000	        -44.34577705	         -2.74924671	         11.28790885	          4.10553212	         85.49388449	        -12.40251587	
         75.32000000	        -38.85780873	         -2.74924671	         11.28790885	          4.10553212	         85.49388449	        -12.40251587	
         75.33000000	        -33.36984042	         -2.74924671	         11.28790885	          4.10553212	         85.49388449	        -12.40251587	
         75.34000000	        -27.88187210	         -2.74924671	         11.28790885	          4.10553212	         85.49388449	        -12.40251587	
         75.35000000	        -22.39390379	         -2.74924671	         11.28790885	          4.10553212	         85.49388449	        -12.40251587	
         75.36000000	        -16.90593547	         -2.74924671	         11.28790885	          4.10553212	         85.49388449	        -12.40251587	
         75.37000000	        -44.34577705	          2.15399008	         11.28790885	          4.10553212	         85.49388449	        -12.40251587	
         75.38000000	        -38.85780873	          2.15399008	         11.28790885	          4.10553212	         85.49388449	        -12.40251587	
         75.39000000	        -33.36984042	          2.15399008	         11.28790885	          4.10553212	         85.49388449	        -12.40251587	
         75.40000000	        -27.88187210	          2.15399008	         11.28790885	          4.10553212	         85.49388449	        -12.40251587	
         75.41000000	        -22.39390379	          2.15399008	         11.28790885	          4.10553212	         85.49388449	        -12.40251587	
         75.42000000	        -16.90593547	          2.15399008	         11.28790885	          4.10553212	         85.49388449	        -12.40251587	
         75.43000000	        -44.34577705	          7.05722688	         11.28790885	          4.10553212	         85.49388449	        -12.40251587	
         75.44000000	        -38.85780873	          7.05722688	         11.28790885	          4.10553212	         85.49388449	        -12.40251587	
         75.45000000	        -33.36984042	          7.05722688	         11.28790885	          4.10553212	         85.49388449	        -12.40251587	
         75.46000000	        -27.88187210	          7.05722688	         11.28790885	          4.10553212	         85.49388449	        -12.40251587	
         75.47000000	        -22.39390379	          7.05722688	         11.28790885	          4.10553212	         85.49388449	        -12.40251587	
         75.48000000	        -16.90593547	          7.05722688	         11.28790885	          4.10553212	         85.49388449	        -12.40251587	
         75.49000000	        -44.34577705	         11.96046367	         11.28790885	          4.10553212	         85.49388449	        -12.40251587	
         75.50000000	        -38.85780873	         11.96046367	         11.28790885	          4.10553212	         85.49388449	        -12.40251587	
         75.51000000	        -33.36984042	         11.96046367	         11.28790885	          4.10553212	         85.49388449	        -12.40251587	
         75.52000000	        -27.88187210	         11.96046367	         11.28790885	          4.10553212	         85.49388449	        -12.40251587	
         75.53000000	        -22.39390379	         11.96046367	         11.28790885	          4.10553212	         85.49388449	        -12.40251587	
         75.54000000	        -16.90593547	         11.96046367	         11.28790885	          4.10553212	         85.49388449	        -12.40251587	
         75.55000000	        -44.34577705	         16.86370047	         11.28790885	          4.10553212	         85.49388449	        -12.40251587	
         75.56000000	        -38.85780873	         16.86370047	         11.28790885	          4.10553212	         85.49388449	        -12.40251587	
         75.57000000	        -33.36984042	         16.86370047	         11.28790885	          4.10553212	         85.49388449	        -12.40251587	
         75.58000000	        -27.88187210	         16.86370047	         11.28790885	          4.10553212	         85.49388449	        -12.40251587	
         75.59000000	        -22.39390379	         16.86370047	         11.28790885	          4.10553212	         85.49388449	        -12.40251587	
         75.60000000	        -16.90593547	         16.86370047	         11.28790885	          4.10553212	         85.49388449	        -12.40251587	
         75.61000000	        -44.34577705	         -7.65248351	        -30.88730313	          7.08700750	         85.49388449	        -12.40251587	
         75.62000000	        -38.85780873	         -7.65248351	        -30.88730313	          7.08700750	         85.49388449	        -12.40251587	
         75.63000000	        -33.36984042	         -7.65248351	        -30.88730313	          7.08700750	         85.49388449	        -12.40251587	
         75.64000000	        -27.88187210	         -7.65248351	        -30.88730313	          7.08700750	         85.49388449	        -12.40251587	
         75.65000000	        -22.39390379	         -7.65248351	        -30.88730313	          7.08700750	         85.49388449	        -12.40251587	
         75.66000000	        -16.90593547	         -7.65248351	        -30.88730313	          7.08700750	         85.49388449	        -12.40251587	
         75.67000000	        -44.34577705	         -2.74924671	        -30.88730313	          7.08700750	         85.49388449	        -12.40251587	
         75.68000000	        -38.85780873	         -2.74924671	        -30.88730313	          7.08700750	         85.49388449	        -12.40251587	
         75.69000000	        -33.36984042	         -2.74924671	        -30.88730313	          7.08700750	         85.49388449	        -12.40251587	
         75.70000000	        -27.88187210	         -2.74924671	        -30.88730313	          7.08700750	         85.49388449	        -12.40251587	
         75.71000000	        -22.39390379	         -2.74924671	        -30.88730313	          7.08700750	         85.49388449	        -12.40251587	
         75.72000000	        -16.90593547	         -2.74924671	        -30.88730313	          7.08700750	         85.49388449	        -12.40251587	
         75.73000000	        -44.34577705	          2.15399008	        -30.88730313	          7.08700750	         85.49388449	        -12.40251587	
         75.74000000	        -38.85780873	          2.15399008	        -30.88730313	          7.08700750	         85.49388449	        -12.40251587	
